<svg xmlns="http://www.w3.org/2000/svg" width="1200" height="630" viewBox="0 0 1200 630">
  <defs>
    <linearGradient id="bg-kolmogorov-arnold-networks" x1="0" y1="0" x2="1" y2="1">
      <stop offset="0%" stop-color="#18181B"/>
      <stop offset="58%" stop-color="#111827"/>
      <stop offset="100%" stop-color="#020617"/>
    </linearGradient>
    <radialGradient id="glow-a-kolmogorov-arnold-networks" cx="50%" cy="50%" r="50%">
      <stop offset="0%" stop-color="#FB7185" stop-opacity=".65"/>
      <stop offset="100%" stop-color="#FB7185" stop-opacity="0"/>
    </radialGradient>
    <radialGradient id="glow-b-kolmogorov-arnold-networks" cx="50%" cy="50%" r="50%">
      <stop offset="0%" stop-color="#FACC15" stop-opacity=".42"/>
      <stop offset="100%" stop-color="#FACC15" stop-opacity="0"/>
    </radialGradient>
    <style>
      .brand { font: 500 25px Inter, ui-sans-serif, system-ui, -apple-system, BlinkMacSystemFont, "Segoe UI", sans-serif; fill: #D8E2F1; letter-spacing: .4px; }
      .title { font: 500 56px Inter, ui-sans-serif, system-ui, sans-serif; fill: #F8FAFC; letter-spacing: 0; }
      .caption { font: 400 24px Inter, ui-sans-serif, system-ui, sans-serif; fill: #9FB0C7; }
      .mono { font: 500 34px ui-monospace, SFMono-Regular, Menlo, Consolas, monospace; fill: #F8FAFC; }
    </style>
  </defs>
  <rect width="1200" height="630" fill="url(#bg-kolmogorov-arnold-networks)"/>
  <rect x="0" y="0" width="1200" height="630" fill="url(#glow-a-kolmogorov-arnold-networks)" opacity=".35" transform="translate(610 -280) scale(1.0 .82)"/>
  <rect x="0" y="0" width="1200" height="630" fill="url(#glow-b-kolmogorov-arnold-networks)" opacity=".28" transform="translate(330 190) scale(.95 .78)"/>
  <path d="M0 508 C190 438, 310 584, 488 506 C690 418, 820 472, 1200 350 L1200 630 L0 630 Z" fill="#FFFFFF" opacity=".035"/>
  <path d="M0 548 C230 480, 375 608, 570 525 C735 455, 920 535, 1200 438" stroke="#FFFFFF" stroke-opacity=".08" stroke-width="2" fill="none"/>
  <g opacity=".85">
    <rect x="690" y="295.0" width="20" height="90" rx="10" fill="#FACC15" opacity=".32"/>
<rect x="732" y="304.5" width="20" height="71" rx="10" fill="#FB7185" opacity=".32"/>
<rect x="774" y="293.0" width="20" height="94" rx="10" fill="#FACC15" opacity=".32"/>
<rect x="816" y="266.0" width="20" height="148" rx="10" fill="#FB7185" opacity=".32"/>
<rect x="858" y="239.0" width="20" height="202" rx="10" fill="#FACC15" opacity=".32"/>
<rect x="900" y="225.5" width="20" height="229" rx="10" fill="#FB7185" opacity=".32"/>
<rect x="942" y="233.5" width="20" height="213" rx="10" fill="#FACC15" opacity=".32"/>
<rect x="984" y="258.5" width="20" height="163" rx="10" fill="#FB7185" opacity=".32"/>
<rect x="1026" y="286.5" width="20" height="107" rx="10" fill="#FACC15" opacity=".32"/>
<rect x="1068" y="303.5" width="20" height="73" rx="10" fill="#FB7185" opacity=".32"/>
  </g>
  <rect x="30" y="28" width="1140" height="574" rx="36" fill="none" stroke="#FFFFFF" stroke-opacity=".10" stroke-width="2"/>
  <g transform="translate(78 70)">
    <rect width="58" height="58" rx="17" fill="#FB7185" opacity=".95"/>
    <text x="29" y="39" text-anchor="middle" class="mono">KV</text>
    <text x="78" y="37" class="brand">Krishnatheja Vanka / Series</text>
  </g>
  <text x="78" y="218" class="title">Kolmogorov-Arnold</text>
<text x="78" y="280" class="title">Networks</text>
  <text x="80" y="338" class="caption">Multi-part guide from concept to implementation</text>
</svg>
