<svg xmlns="http://www.w3.org/2000/svg" width="1200" height="630" viewBox="0 0 1200 630">
  <defs>
    <linearGradient id="bg-kolmogorov-arnold-networks" x1="0" y1="0" x2="1" y2="1">
      <stop offset="0%" stop-color="#F7FBFF"/>
      <stop offset="54%" stop-color="#ffffff"/>
      <stop offset="100%" stop-color="#F7FBFF"/>
    </linearGradient>
    <filter id="shadow-kolmogorov-arnold-networks" x="-20%" y="-20%" width="140%" height="140%">
      <feDropShadow dx="0" dy="22" stdDeviation="22" flood-color="#102A43" flood-opacity=".16"/>
    </filter>
    <style>
      .brand { font: 500 25px Inter, ui-sans-serif, system-ui, -apple-system, BlinkMacSystemFont, "Segoe UI", sans-serif; fill: #102A43; letter-spacing: .5px; }
      .eyebrow { font: 500 28px Inter, ui-sans-serif, system-ui, sans-serif; fill: #102A43; }
      .meta { font: 500 24px Inter, ui-sans-serif, system-ui, sans-serif; fill: #102A43; }
      .title { font: 500 44px Inter, ui-sans-serif, system-ui, sans-serif; fill: #102A43; }
      .desc { font: 400 23px Inter, ui-sans-serif, system-ui, sans-serif; fill: #102A43; opacity: .72; }
      .post { font: 400 20px Inter, ui-sans-serif, system-ui, sans-serif; fill: #102A43; opacity: .78; }
      .post-num { font: 500 12px Inter, ui-sans-serif, system-ui, sans-serif; fill: #102A43; }
      .mono { font: 500 30px ui-monospace, SFMono-Regular, Menlo, Consolas, monospace; fill: #102A43; }
    </style>
  </defs>
  <rect width="1200" height="630" fill="url(#bg-kolmogorov-arnold-networks)"/>
  <circle cx="1080" cy="80" r="260" fill="#3A86FF" opacity=".10"/>
  <circle cx="1050" cy="570" r="210" fill="#2EC4B6" opacity=".10"/>
  <rect x="44" y="42" width="1112" height="546" rx="34" fill="#ffffff" opacity=".76" filter="url(#shadow-kolmogorov-arnold-networks)"/>
  <rect x="44" y="42" width="1112" height="546" rx="34" fill="none" stroke="#102A43" stroke-opacity=".10" stroke-width="2"/>
  <g transform="translate(88 92)">
    <rect width="58" height="58" rx="18" fill="#102A43"/>
    <text x="29" y="39" text-anchor="middle" class="mono" fill="#fff">KV</text>
    <text x="78" y="37" class="brand">Krishnatheja Vanka / Series</text>
  </g>
  <g transform="translate(748 92)">
    <rect x="0" y="0" width="162" height="44" rx="22" fill="#3A86FF" opacity=".14"/>
    <text x="22" y="30" class="eyebrow">3 parts</text>
    <rect x="185" y="0" width="142" height="44" rx="22" fill="#2EC4B6" opacity=".16"/>
    <text x="207" y="30" class="meta">~24 min</text>
  </g>
  <text x="86" y="208" class="title">Kolmogorov-Arnold</text>
<text x="86" y="258" class="title">Networks</text>
  <text x="88" y="348" class="desc">KANs as a flexible alternative to MLPs.</text>
  <line x1="88" y1="392" x2="610" y2="392" stroke="#102A43" stroke-opacity=".14" stroke-width="2"/>
  <g transform="translate(88 438)"><circle cx="10" cy="10" r="10" fill="#3A86FF" opacity=".16"/><text x="10" y="14" text-anchor="middle" class="post-num">1</text><text x="34" y="15" class="post">Kolmogorov-Arnold Networks: Revolutionizing Neural...</text></g>
<g transform="translate(88 476)"><circle cx="10" cy="10" r="10" fill="#3A86FF" opacity=".16"/><text x="10" y="14" text-anchor="middle" class="post-num">2</text><text x="34" y="15" class="post">The Mathematics Behind Kolmogorov-Arnold Networks</text></g>
<g transform="translate(88 514)"><circle cx="10" cy="10" r="10" fill="#3A86FF" opacity=".16"/><text x="10" y="14" text-anchor="middle" class="post-num">3</text><text x="34" y="15" class="post">Kolmogorov-Arnold Networks: Complete Implementation...</text></g>
  
  <g opacity=".95">
    <circle cx="930" cy="310" r="64" fill="none" stroke="#2EC4B6" stroke-width="2" opacity="0.36"/>
<circle cx="930" cy="310" r="104" fill="none" stroke="#3A86FF" stroke-width="2" opacity="0.32"/>
<circle cx="930" cy="310" r="148" fill="none" stroke="#2EC4B6" stroke-width="2" opacity="0.27"/>
<circle cx="930" cy="310" r="192" fill="none" stroke="#3A86FF" stroke-width="2" opacity="0.22"/>
<circle cx="930" cy="310" r="238" fill="none" stroke="#2EC4B6" stroke-width="2" opacity="0.18"/>
<circle cx="1168.0" cy="310.0" r="6" fill="#3A86FF" opacity=".55"/>
<circle cx="1098.3" cy="478.3" r="6" fill="#3A86FF" opacity=".55"/>
<circle cx="930.0" cy="548.0" r="6" fill="#3A86FF" opacity=".55"/>
<circle cx="761.7" cy="478.3" r="6" fill="#3A86FF" opacity=".55"/>
<circle cx="692.0" cy="310.0" r="6" fill="#3A86FF" opacity=".55"/>
<circle cx="761.7" cy="141.7" r="6" fill="#3A86FF" opacity=".55"/>
<circle cx="930.0" cy="72.0" r="6" fill="#3A86FF" opacity=".55"/>
<circle cx="1098.3" cy="141.7" r="6" fill="#3A86FF" opacity=".55"/>
  </g>
  <path d="M795 520 C875 466, 1005 468, 1098 540" stroke="#102A43" stroke-opacity=".08" stroke-width="28" stroke-linecap="round" fill="none"/>
</svg>
