<svg xmlns="http://www.w3.org/2000/svg" width="1200" height="630" viewBox="0 0 1200 630">
  <defs>
    <linearGradient id="bg-mamba-transformers" x1="0" y1="0" x2="1" y2="1">
      <stop offset="0%" stop-color="#F6FAFB"/>
      <stop offset="54%" stop-color="#ffffff"/>
      <stop offset="100%" stop-color="#F6FAFB"/>
    </linearGradient>
    <filter id="shadow-mamba-transformers" x="-20%" y="-20%" width="140%" height="140%">
      <feDropShadow dx="0" dy="22" stdDeviation="22" flood-color="#1D3557" flood-opacity=".16"/>
    </filter>
    <style>
      .brand { font: 500 25px Inter, ui-sans-serif, system-ui, -apple-system, BlinkMacSystemFont, "Segoe UI", sans-serif; fill: #1D3557; letter-spacing: .5px; }
      .eyebrow { font: 500 28px Inter, ui-sans-serif, system-ui, sans-serif; fill: #1D3557; }
      .meta { font: 500 24px Inter, ui-sans-serif, system-ui, sans-serif; fill: #1D3557; }
      .title { font: 500 44px Inter, ui-sans-serif, system-ui, sans-serif; fill: #1D3557; }
      .desc { font: 400 23px Inter, ui-sans-serif, system-ui, sans-serif; fill: #1D3557; opacity: .72; }
      .post { font: 400 20px Inter, ui-sans-serif, system-ui, sans-serif; fill: #1D3557; opacity: .78; }
      .post-num { font: 500 12px Inter, ui-sans-serif, system-ui, sans-serif; fill: #1D3557; }
      .mono { font: 500 30px ui-monospace, SFMono-Regular, Menlo, Consolas, monospace; fill: #1D3557; }
    </style>
  </defs>
  <rect width="1200" height="630" fill="url(#bg-mamba-transformers)"/>
  <circle cx="1080" cy="80" r="260" fill="#E63946" opacity=".10"/>
  <circle cx="1050" cy="570" r="210" fill="#A8DADC" opacity=".10"/>
  <rect x="44" y="42" width="1112" height="546" rx="34" fill="#ffffff" opacity=".76" filter="url(#shadow-mamba-transformers)"/>
  <rect x="44" y="42" width="1112" height="546" rx="34" fill="none" stroke="#1D3557" stroke-opacity=".10" stroke-width="2"/>
  <g transform="translate(88 92)">
    <rect width="58" height="58" rx="18" fill="#1D3557"/>
    <text x="29" y="39" text-anchor="middle" class="mono" fill="#fff">KV</text>
    <text x="78" y="37" class="brand">Krishnatheja Vanka / Series</text>
  </g>
  <g transform="translate(748 92)">
    <rect x="0" y="0" width="162" height="44" rx="22" fill="#E63946" opacity=".14"/>
    <text x="22" y="30" class="eyebrow">3 parts</text>
    <rect x="185" y="0" width="142" height="44" rx="22" fill="#A8DADC" opacity=".16"/>
    <text x="207" y="30" class="meta">~38 min</text>
  </g>
  <text x="86" y="208" class="title">Mamba Transformers</text>
  <text x="88" y="298" class="desc">State space models and the Mamba architecture.</text>
  <line x1="88" y1="392" x2="610" y2="392" stroke="#1D3557" stroke-opacity=".14" stroke-width="2"/>
  <g transform="translate(88 438)"><circle cx="10" cy="10" r="10" fill="#E63946" opacity=".16"/><text x="10" y="14" text-anchor="middle" class="post-num">1</text><text x="34" y="15" class="post">Mamba Transformers: Revolutionizing Sequence Modeling...</text></g>
<g transform="translate(88 476)"><circle cx="10" cy="10" r="10" fill="#E63946" opacity=".16"/><text x="10" y="14" text-anchor="middle" class="post-num">2</text><text x="34" y="15" class="post">Mathematics Behind Mamba Transformers: A Complete...</text></g>
<g transform="translate(88 514)"><circle cx="10" cy="10" r="10" fill="#E63946" opacity=".16"/><text x="10" y="14" text-anchor="middle" class="post-num">3</text><text x="34" y="15" class="post">Complete Guide to Mamba Transformers: Implementation...</text></g>
  
  <g opacity=".95">
    <rect x="760" y="275.0" width="16" height="150" rx="8" fill="#E63946" opacity="0.12"/>
<rect x="794" y="248.0" width="16" height="204" rx="8" fill="#E63946" opacity="0.17"/>
<rect x="828" y="235.5" width="16" height="229" rx="8" fill="#E63946" opacity="0.23"/>
<rect x="862" y="244.0" width="16" height="212" rx="8" fill="#E63946" opacity="0.29"/>
<rect x="896" y="269.5" width="16" height="161" rx="8" fill="#E63946" opacity="0.12"/>
<rect x="930" y="297.5" width="16" height="105" rx="8" fill="#E63946" opacity="0.17"/>
<rect x="964" y="314.0" width="16" height="72" rx="8" fill="#E63946" opacity="0.23"/>
<rect x="998" y="309.0" width="16" height="82" rx="8" fill="#E63946" opacity="0.29"/>
<rect x="1032" y="286.0" width="16" height="128" rx="8" fill="#E63946" opacity="0.12"/>
<rect x="1066" y="257.0" width="16" height="186" rx="8" fill="#E63946" opacity="0.17"/>
<rect x="1100" y="237.5" width="16" height="225" rx="8" fill="#E63946" opacity="0.23"/>
<rect x="1134" y="238.5" width="16" height="223" rx="8" fill="#E63946" opacity="0.29"/>
  </g>
  <path d="M795 520 C875 466, 1005 468, 1098 540" stroke="#1D3557" stroke-opacity=".08" stroke-width="28" stroke-linecap="round" fill="none"/>
</svg>
