<svg xmlns="http://www.w3.org/2000/svg" width="1200" height="630" viewBox="0 0 1200 630">
  <defs>
    <linearGradient id="bg-mamba-transformers" x1="0" y1="0" x2="1" y2="1">
      <stop offset="0%" stop-color="#111827"/>
      <stop offset="58%" stop-color="#111827"/>
      <stop offset="100%" stop-color="#020617"/>
    </linearGradient>
    <radialGradient id="glow-a-mamba-transformers" cx="50%" cy="50%" r="50%">
      <stop offset="0%" stop-color="#F97316" stop-opacity=".65"/>
      <stop offset="100%" stop-color="#F97316" stop-opacity="0"/>
    </radialGradient>
    <radialGradient id="glow-b-mamba-transformers" cx="50%" cy="50%" r="50%">
      <stop offset="0%" stop-color="#67E8F9" stop-opacity=".42"/>
      <stop offset="100%" stop-color="#67E8F9" stop-opacity="0"/>
    </radialGradient>
    <style>
      .brand { font: 500 25px Inter, ui-sans-serif, system-ui, -apple-system, BlinkMacSystemFont, "Segoe UI", sans-serif; fill: #D8E2F1; letter-spacing: .4px; }
      .chip { font: 500 24px Inter, ui-sans-serif, system-ui, sans-serif; fill: #E5EDF8; }
      .title { font: 500 56px Inter, ui-sans-serif, system-ui, sans-serif; fill: #F8FAFC; letter-spacing: 0; }
      .caption { font: 400 24px Inter, ui-sans-serif, system-ui, sans-serif; fill: #9FB0C7; }
      .mono { font: 500 34px ui-monospace, SFMono-Regular, Menlo, Consolas, monospace; fill: #F8FAFC; }
      .mini { font: 500 18px Inter, ui-sans-serif, system-ui, sans-serif; fill: #E5EDF8; }
      .diagram { font: 500 22px Inter, ui-sans-serif, system-ui, sans-serif; fill: #D8E2F1; opacity: .86; }
      .code { font: 500 24px ui-monospace, SFMono-Regular, Menlo, Consolas, monospace; fill: #D8E2F1; opacity: .88; }
    </style>
  </defs>
  <rect width="1200" height="630" fill="url(#bg-mamba-transformers)"/>
  <rect x="0" y="0" width="1200" height="630" fill="url(#glow-a-mamba-transformers)" opacity=".35" transform="translate(610 -280) scale(1.0 .82)"/>
  <rect x="0" y="0" width="1200" height="630" fill="url(#glow-b-mamba-transformers)" opacity=".28" transform="translate(330 190) scale(.95 .78)"/>
  <path d="M0 508 C190 438, 310 584, 488 506 C690 418, 820 472, 1200 350 L1200 630 L0 630 Z" fill="#FFFFFF" opacity=".035"/>
  <path d="M0 548 C230 480, 375 608, 570 525 C735 455, 920 535, 1200 438" stroke="#FFFFFF" stroke-opacity=".08" stroke-width="2" fill="none"/>
  <g opacity=".85">
    <path d="M690 150 C760 205, 830 95, 900 150 S1040 205, 1110 150" stroke="#67E8F9" stroke-width="4" opacity=".55" fill="none"/>
<path d="M690 192 C760 247, 830 137, 900 192 S1040 247, 1110 192" stroke="#F97316" stroke-width="4" opacity=".55" fill="none"/>
<path d="M690 234 C760 289, 830 179, 900 234 S1040 289, 1110 234" stroke="#67E8F9" stroke-width="4" opacity=".55" fill="none"/>
<path d="M690 276 C760 331, 830 221, 900 276 S1040 331, 1110 276" stroke="#F97316" stroke-width="4" opacity=".55" fill="none"/>
<path d="M690 318 C760 373, 830 263, 900 318 S1040 373, 1110 318" stroke="#67E8F9" stroke-width="4" opacity=".55" fill="none"/>
<path d="M690 360 C760 415, 830 305, 900 360 S1040 415, 1110 360" stroke="#F97316" stroke-width="4" opacity=".55" fill="none"/>
<path d="M690 402 C760 457, 830 347, 900 402 S1040 457, 1110 402" stroke="#67E8F9" stroke-width="4" opacity=".55" fill="none"/>
<circle cx="700" cy="410" r="6" fill="#F97316" opacity=".9"/>
<circle cx="770" cy="410" r="6" fill="#F97316" opacity=".9"/>
<circle cx="840" cy="410" r="6" fill="#F97316" opacity=".9"/>
<circle cx="910" cy="410" r="6" fill="#F97316" opacity=".9"/>
<circle cx="980" cy="410" r="6" fill="#F97316" opacity=".9"/>
<circle cx="1050" cy="410" r="6" fill="#F97316" opacity=".9"/>
  </g>
  <rect x="30" y="28" width="1140" height="574" rx="36" fill="none" stroke="#FFFFFF" stroke-opacity=".10" stroke-width="2"/>
  <g transform="translate(78 70)">
    <rect width="58" height="58" rx="17" fill="#F97316" opacity=".95"/>
    <text x="29" y="39" text-anchor="middle" class="mono">KV</text>
    <text x="78" y="37" class="brand">Krishnatheja Vanka / Series</text>
  </g>
  <g transform="translate(78 392)">
    <rect x="0" y="0" width="154" height="46" rx="23" fill="#FFFFFF" opacity=".09"/>
    <circle cx="26" cy="23" r="7" fill="#F97316"/>
    <text x="46" y="31" class="chip">3 parts</text>
    <rect x="174" y="0" width="140" height="46" rx="23" fill="#FFFFFF" opacity=".09"/>
    <circle cx="200" cy="23" r="7" fill="#67E8F9"/>
    <text x="220" y="31" class="chip">~38 min</text>
  </g>
  <text x="78" y="218" class="title">Mamba Transformers</text>
  <text x="80" y="338" class="caption">Multi-part guide from concept to implementation</text>
</svg>
