<svg xmlns="http://www.w3.org/2000/svg" width="1200" height="630" viewBox="0 0 1200 630">
  <defs>
    <linearGradient id="bg-matryoshka-transformers" x1="0" y1="0" x2="1" y2="1">
      <stop offset="0%" stop-color="#0F172A"/>
      <stop offset="58%" stop-color="#111827"/>
      <stop offset="100%" stop-color="#020617"/>
    </linearGradient>
    <radialGradient id="glow-a-matryoshka-transformers" cx="50%" cy="50%" r="50%">
      <stop offset="0%" stop-color="#22C55E" stop-opacity=".65"/>
      <stop offset="100%" stop-color="#22C55E" stop-opacity="0"/>
    </radialGradient>
    <radialGradient id="glow-b-matryoshka-transformers" cx="50%" cy="50%" r="50%">
      <stop offset="0%" stop-color="#60A5FA" stop-opacity=".42"/>
      <stop offset="100%" stop-color="#60A5FA" stop-opacity="0"/>
    </radialGradient>
    <style>
      .brand { font: 500 25px Inter, ui-sans-serif, system-ui, -apple-system, BlinkMacSystemFont, "Segoe UI", sans-serif; fill: #D8E2F1; letter-spacing: .4px; }
      .chip { font: 500 24px Inter, ui-sans-serif, system-ui, sans-serif; fill: #E5EDF8; }
      .title { font: 500 56px Inter, ui-sans-serif, system-ui, sans-serif; fill: #F8FAFC; letter-spacing: 0; }
      .caption { font: 400 24px Inter, ui-sans-serif, system-ui, sans-serif; fill: #9FB0C7; }
      .mono { font: 500 34px ui-monospace, SFMono-Regular, Menlo, Consolas, monospace; fill: #F8FAFC; }
      .mark { font: 500 190px Inter, ui-sans-serif, system-ui, sans-serif; fill: #F8FAFC; opacity: .055; letter-spacing: 0; }
    </style>
  </defs>
  <rect width="1200" height="630" fill="url(#bg-matryoshka-transformers)"/>
  <rect x="0" y="0" width="1200" height="630" fill="url(#glow-a-matryoshka-transformers)" opacity=".35" transform="translate(610 -280) scale(1.0 .82)"/>
  <rect x="0" y="0" width="1200" height="630" fill="url(#glow-b-matryoshka-transformers)" opacity=".28" transform="translate(330 190) scale(.95 .78)"/>
  <path d="M0 508 C190 438, 310 584, 488 506 C690 418, 820 472, 1200 350 L1200 630 L0 630 Z" fill="#FFFFFF" opacity=".035"/>
  <path d="M0 548 C230 480, 375 608, 570 525 C735 455, 920 535, 1200 438" stroke="#FFFFFF" stroke-opacity=".08" stroke-width="2" fill="none"/>
  <text x="812" y="392" text-anchor="middle" class="mark">MT</text>
  <g opacity=".85">
    <circle cx="910" cy="306" r="64" fill="none" stroke="#60A5FA" stroke-width="3" opacity="0.55"/>
<circle cx="910" cy="306" r="108" fill="none" stroke="#22C55E" stroke-width="3" opacity="0.49"/>
<circle cx="910" cy="306" r="154" fill="none" stroke="#60A5FA" stroke-width="3" opacity="0.43"/>
<circle cx="910" cy="306" r="202" fill="none" stroke="#22C55E" stroke-width="3" opacity="0.37"/>
<circle cx="910" cy="306" r="252" fill="none" stroke="#60A5FA" stroke-width="3" opacity="0.31"/>
<circle cx="1162.0" cy="306.0" r="7" fill="#22C55E" opacity=".85"/>
<circle cx="1088.2" cy="484.2" r="7" fill="#22C55E" opacity=".85"/>
<circle cx="910.0" cy="558.0" r="7" fill="#22C55E" opacity=".85"/>
<circle cx="731.8" cy="484.2" r="7" fill="#22C55E" opacity=".85"/>
<circle cx="658.0" cy="306.0" r="7" fill="#22C55E" opacity=".85"/>
<circle cx="731.8" cy="127.8" r="7" fill="#22C55E" opacity=".85"/>
<circle cx="910.0" cy="54.0" r="7" fill="#22C55E" opacity=".85"/>
<circle cx="1088.2" cy="127.8" r="7" fill="#22C55E" opacity=".85"/>
  </g>
  <rect x="30" y="28" width="1140" height="574" rx="36" fill="none" stroke="#FFFFFF" stroke-opacity=".10" stroke-width="2"/>
  <g transform="translate(78 70)">
    <rect width="58" height="58" rx="17" fill="#22C55E" opacity=".95"/>
    <text x="29" y="39" text-anchor="middle" class="mono">KV</text>
    <text x="78" y="37" class="brand">Krishnatheja Vanka / Series</text>
  </g>
  <g transform="translate(78 392)">
    <rect x="0" y="0" width="154" height="46" rx="23" fill="#FFFFFF" opacity=".09"/>
    <circle cx="26" cy="23" r="7" fill="#22C55E"/>
    <text x="46" y="31" class="chip">3 parts</text>
    <rect x="174" y="0" width="140" height="46" rx="23" fill="#FFFFFF" opacity=".09"/>
    <circle cx="200" cy="23" r="7" fill="#60A5FA"/>
    <text x="220" y="31" class="chip">~19 min</text>
  </g>
  <text x="78" y="218" class="title">Matryoshka Transformers</text>
  <text x="80" y="338" class="caption">Multi-part guide from concept to implementation</text>
</svg>
