<svg xmlns="http://www.w3.org/2000/svg" width="1200" height="630" viewBox="0 0 1200 630">
  <defs>
    <linearGradient id="bg-mixture-of-experts" x1="0" y1="0" x2="1" y2="1">
      <stop offset="0%" stop-color="#F6FAFB"/>
      <stop offset="54%" stop-color="#ffffff"/>
      <stop offset="100%" stop-color="#F6FAFB"/>
    </linearGradient>
    <filter id="shadow-mixture-of-experts" x="-20%" y="-20%" width="140%" height="140%">
      <feDropShadow dx="0" dy="22" stdDeviation="22" flood-color="#1D3557" flood-opacity=".16"/>
    </filter>
    <style>
      .brand { font: 500 25px Inter, ui-sans-serif, system-ui, -apple-system, BlinkMacSystemFont, "Segoe UI", sans-serif; fill: #1D3557; letter-spacing: .5px; }
      .eyebrow { font: 500 28px Inter, ui-sans-serif, system-ui, sans-serif; fill: #1D3557; }
      .meta { font: 500 24px Inter, ui-sans-serif, system-ui, sans-serif; fill: #1D3557; }
      .title { font: 500 44px Inter, ui-sans-serif, system-ui, sans-serif; fill: #1D3557; }
      .desc { font: 400 23px Inter, ui-sans-serif, system-ui, sans-serif; fill: #1D3557; opacity: .72; }
      .post { font: 400 20px Inter, ui-sans-serif, system-ui, sans-serif; fill: #1D3557; opacity: .78; }
      .post-num { font: 500 12px Inter, ui-sans-serif, system-ui, sans-serif; fill: #1D3557; }
      .mono { font: 500 30px ui-monospace, SFMono-Regular, Menlo, Consolas, monospace; fill: #1D3557; }
    </style>
  </defs>
  <rect width="1200" height="630" fill="url(#bg-mixture-of-experts)"/>
  <circle cx="1080" cy="80" r="260" fill="#E63946" opacity=".10"/>
  <circle cx="1050" cy="570" r="210" fill="#A8DADC" opacity=".10"/>
  <rect x="44" y="42" width="1112" height="546" rx="34" fill="#ffffff" opacity=".76" filter="url(#shadow-mixture-of-experts)"/>
  <rect x="44" y="42" width="1112" height="546" rx="34" fill="none" stroke="#1D3557" stroke-opacity=".10" stroke-width="2"/>
  <g transform="translate(88 92)">
    <rect width="58" height="58" rx="18" fill="#1D3557"/>
    <text x="29" y="39" text-anchor="middle" class="mono" fill="#fff">KV</text>
    <text x="78" y="37" class="brand">Krishnatheja Vanka / Series</text>
  </g>
  <g transform="translate(748 92)">
    <rect x="0" y="0" width="162" height="44" rx="22" fill="#E63946" opacity=".14"/>
    <text x="22" y="30" class="eyebrow">3 parts</text>
    <rect x="185" y="0" width="142" height="44" rx="22" fill="#A8DADC" opacity=".16"/>
    <text x="207" y="30" class="meta">~32 min</text>
  </g>
  <text x="86" y="208" class="title">Mixture of Experts</text>
  <text x="88" y="298" class="desc">Sparse MoE from theory through GShard to Switch</text>
<text x="88" y="326" class="desc">Transformer.</text>
  <line x1="88" y1="392" x2="610" y2="392" stroke="#1D3557" stroke-opacity=".14" stroke-width="2"/>
  <g transform="translate(88 438)"><circle cx="10" cy="10" r="10" fill="#E63946" opacity=".16"/><text x="10" y="14" text-anchor="middle" class="post-num">1</text><text x="34" y="15" class="post">Mixture of Experts: A Deep Overview</text></g>
<g transform="translate(88 476)"><circle cx="10" cy="10" r="10" fill="#E63946" opacity=".16"/><text x="10" y="14" text-anchor="middle" class="post-num">2</text><text x="34" y="15" class="post">GShard: Scaling Giant Neural Networks with Conditional...</text></g>
<g transform="translate(88 514)"><circle cx="10" cy="10" r="10" fill="#E63946" opacity=".16"/><text x="10" y="14" text-anchor="middle" class="post-num">3</text><text x="34" y="15" class="post">Switch Transformer: Scaling Neural Networks with...</text></g>
  
  <g opacity=".95">
    <path d="M780 126 C900 86, 930 180, 1080 144" stroke="#E63946" stroke-width="2.4" opacity=".34" fill="none"/>
<path d="M820 174 C900 134, 930 228, 1044 192" stroke="#E63946" stroke-width="2.4" opacity=".34" fill="none"/>
<path d="M780 222 C900 182, 930 276, 1008 240" stroke="#E63946" stroke-width="2.4" opacity=".34" fill="none"/>
<path d="M820 270 C900 230, 930 324, 1080 288" stroke="#E63946" stroke-width="2.4" opacity=".34" fill="none"/>
<path d="M780 318 C900 278, 930 372, 1044 336" stroke="#E63946" stroke-width="2.4" opacity=".34" fill="none"/>
<path d="M820 366 C900 326, 930 420, 1008 384" stroke="#E63946" stroke-width="2.4" opacity=".34" fill="none"/>
<path d="M780 414 C900 374, 930 468, 1080 432" stroke="#E63946" stroke-width="2.4" opacity=".34" fill="none"/>
<path d="M820 462 C900 422, 930 516, 1044 480" stroke="#E63946" stroke-width="2.4" opacity=".34" fill="none"/>
<circle cx="820" cy="150" r="7" fill="#A8DADC" opacity=".70"/>
<circle cx="896" cy="150" r="7" fill="#A8DADC" opacity=".70"/>
<circle cx="972" cy="150" r="7" fill="#A8DADC" opacity=".70"/>
<circle cx="1048" cy="150" r="7" fill="#A8DADC" opacity=".70"/>
<circle cx="820" cy="246" r="7" fill="#A8DADC" opacity=".70"/>
<circle cx="896" cy="246" r="7" fill="#A8DADC" opacity=".70"/>
<circle cx="972" cy="246" r="7" fill="#A8DADC" opacity=".70"/>
<circle cx="1048" cy="246" r="7" fill="#A8DADC" opacity=".70"/>
<circle cx="820" cy="342" r="7" fill="#A8DADC" opacity=".70"/>
<circle cx="896" cy="342" r="7" fill="#A8DADC" opacity=".70"/>
<circle cx="972" cy="342" r="7" fill="#A8DADC" opacity=".70"/>
<circle cx="1048" cy="342" r="7" fill="#A8DADC" opacity=".70"/>
<circle cx="820" cy="438" r="7" fill="#A8DADC" opacity=".70"/>
<circle cx="896" cy="438" r="7" fill="#A8DADC" opacity=".70"/>
<circle cx="972" cy="438" r="7" fill="#A8DADC" opacity=".70"/>
<circle cx="1048" cy="438" r="7" fill="#A8DADC" opacity=".70"/>
  </g>
  <path d="M795 520 C875 466, 1005 468, 1098 540" stroke="#1D3557" stroke-opacity=".08" stroke-width="28" stroke-linecap="round" fill="none"/>
</svg>
