<svg xmlns="http://www.w3.org/2000/svg" width="1200" height="630" viewBox="0 0 1200 630">
  <defs>
    <linearGradient id="bg-neural-architecture-search" x1="0" y1="0" x2="1" y2="1">
      <stop offset="0%" stop-color="#0F172A"/>
      <stop offset="58%" stop-color="#111827"/>
      <stop offset="100%" stop-color="#020617"/>
    </linearGradient>
    <radialGradient id="glow-a-neural-architecture-search" cx="50%" cy="50%" r="50%">
      <stop offset="0%" stop-color="#22C55E" stop-opacity=".65"/>
      <stop offset="100%" stop-color="#22C55E" stop-opacity="0"/>
    </radialGradient>
    <radialGradient id="glow-b-neural-architecture-search" cx="50%" cy="50%" r="50%">
      <stop offset="0%" stop-color="#60A5FA" stop-opacity=".42"/>
      <stop offset="100%" stop-color="#60A5FA" stop-opacity="0"/>
    </radialGradient>
    <style>
      .brand { font: 500 25px Inter, ui-sans-serif, system-ui, -apple-system, BlinkMacSystemFont, "Segoe UI", sans-serif; fill: #D8E2F1; letter-spacing: .4px; }
      .title { font: 500 56px Inter, ui-sans-serif, system-ui, sans-serif; fill: #F8FAFC; letter-spacing: 0; }
      .caption { font: 400 24px Inter, ui-sans-serif, system-ui, sans-serif; fill: #9FB0C7; }
      .mono { font: 500 34px ui-monospace, SFMono-Regular, Menlo, Consolas, monospace; fill: #F8FAFC; }
    </style>
  </defs>
  <rect width="1200" height="630" fill="url(#bg-neural-architecture-search)"/>
  <rect x="0" y="0" width="1200" height="630" fill="url(#glow-a-neural-architecture-search)" opacity=".35" transform="translate(610 -280) scale(1.0 .82)"/>
  <rect x="0" y="0" width="1200" height="630" fill="url(#glow-b-neural-architecture-search)" opacity=".28" transform="translate(330 190) scale(.95 .78)"/>
  <path d="M0 508 C190 438, 310 584, 488 506 C690 418, 820 472, 1200 350 L1200 630 L0 630 Z" fill="#FFFFFF" opacity=".035"/>
  <path d="M0 548 C230 480, 375 608, 570 525 C735 455, 920 535, 1200 438" stroke="#FFFFFF" stroke-opacity=".08" stroke-width="2" fill="none"/>
  <g opacity=".85">
    <path d="M850 130 L750 235" stroke="#22C55E" stroke-width="4" stroke-linecap="round" opacity=".45" fill="none"/>
<path d="M850 130 L950 235" stroke="#22C55E" stroke-width="4" stroke-linecap="round" opacity=".45" fill="none"/>
<path d="M750 235 L690 355" stroke="#22C55E" stroke-width="4" stroke-linecap="round" opacity=".45" fill="none"/>
<path d="M750 235 L810 355" stroke="#22C55E" stroke-width="4" stroke-linecap="round" opacity=".45" fill="none"/>
<path d="M950 235 L920 355" stroke="#22C55E" stroke-width="4" stroke-linecap="round" opacity=".45" fill="none"/>
<path d="M950 235 L1040 355" stroke="#22C55E" stroke-width="4" stroke-linecap="round" opacity=".45" fill="none"/>
<rect x="808" y="102" width="84" height="56" rx="16" fill="#22C55E" opacity=".22"/>
<rect x="708" y="207" width="84" height="56" rx="16" fill="#22C55E" opacity=".22"/>
<rect x="908" y="207" width="84" height="56" rx="16" fill="#22C55E" opacity=".22"/>
<rect x="648" y="327" width="84" height="56" rx="16" fill="#60A5FA" opacity=".22"/>
<rect x="768" y="327" width="84" height="56" rx="16" fill="#22C55E" opacity=".22"/>
<rect x="878" y="327" width="84" height="56" rx="16" fill="#60A5FA" opacity=".22"/>
<rect x="998" y="327" width="84" height="56" rx="16" fill="#22C55E" opacity=".22"/>
<circle cx="1040" cy="355" r="56" fill="none" stroke="#60A5FA" stroke-width="4" opacity=".5"/>
  </g>
  <rect x="30" y="28" width="1140" height="574" rx="36" fill="none" stroke="#FFFFFF" stroke-opacity=".10" stroke-width="2"/>
  <g transform="translate(78 70)">
    <rect width="58" height="58" rx="17" fill="#22C55E" opacity=".95"/>
    <text x="29" y="39" text-anchor="middle" class="mono">KV</text>
    <text x="78" y="37" class="brand">Krishnatheja Vanka / Series</text>
  </g>
  <text x="78" y="218" class="title">Neural Architecture</text>
<text x="78" y="280" class="title">Search</text>
  <text x="80" y="338" class="caption">Multi-part guide from concept to implementation</text>
</svg>
