<svg xmlns="http://www.w3.org/2000/svg" width="1200" height="630" viewBox="0 0 1200 630">
  <defs>
    <linearGradient id="bg-onnx-deployment" x1="0" y1="0" x2="1" y2="1">
      <stop offset="0%" stop-color="#1E1B4B"/>
      <stop offset="58%" stop-color="#111827"/>
      <stop offset="100%" stop-color="#020617"/>
    </linearGradient>
    <radialGradient id="glow-a-onnx-deployment" cx="50%" cy="50%" r="50%">
      <stop offset="0%" stop-color="#E879F9" stop-opacity=".65"/>
      <stop offset="100%" stop-color="#E879F9" stop-opacity="0"/>
    </radialGradient>
    <radialGradient id="glow-b-onnx-deployment" cx="50%" cy="50%" r="50%">
      <stop offset="0%" stop-color="#22D3EE" stop-opacity=".42"/>
      <stop offset="100%" stop-color="#22D3EE" stop-opacity="0"/>
    </radialGradient>
    <style>
      .brand { font: 500 25px Inter, ui-sans-serif, system-ui, -apple-system, BlinkMacSystemFont, "Segoe UI", sans-serif; fill: #D8E2F1; letter-spacing: .4px; }
      .chip { font: 500 24px Inter, ui-sans-serif, system-ui, sans-serif; fill: #E5EDF8; }
      .title { font: 500 56px Inter, ui-sans-serif, system-ui, sans-serif; fill: #F8FAFC; letter-spacing: 0; }
      .caption { font: 400 24px Inter, ui-sans-serif, system-ui, sans-serif; fill: #9FB0C7; }
      .mono { font: 500 34px ui-monospace, SFMono-Regular, Menlo, Consolas, monospace; fill: #F8FAFC; }
      .mark { font: 500 190px Inter, ui-sans-serif, system-ui, sans-serif; fill: #F8FAFC; opacity: .055; letter-spacing: 0; }
    </style>
  </defs>
  <rect width="1200" height="630" fill="url(#bg-onnx-deployment)"/>
  <rect x="0" y="0" width="1200" height="630" fill="url(#glow-a-onnx-deployment)" opacity=".35" transform="translate(610 -280) scale(1.0 .82)"/>
  <rect x="0" y="0" width="1200" height="630" fill="url(#glow-b-onnx-deployment)" opacity=".28" transform="translate(330 190) scale(.95 .78)"/>
  <path d="M0 508 C190 438, 310 584, 488 506 C690 418, 820 472, 1200 350 L1200 630 L0 630 Z" fill="#FFFFFF" opacity=".035"/>
  <path d="M0 548 C230 480, 375 608, 570 525 C735 455, 920 535, 1200 438" stroke="#FFFFFF" stroke-opacity=".08" stroke-width="2" fill="none"/>
  <text x="812" y="392" text-anchor="middle" class="mark">OD</text>
  <g opacity=".85">
    <rect x="668" y="233.0" width="18" height="190" rx="9" fill="#E879F9" opacity="0.20"/>
<rect x="702" y="207.0" width="18" height="242" rx="9" fill="#E879F9" opacity="0.26"/>
<rect x="736" y="191.5" width="18" height="273" rx="9" fill="#E879F9" opacity="0.32"/>
<rect x="770" y="194.0" width="18" height="268" rx="9" fill="#E879F9" opacity="0.38"/>
<rect x="804" y="212.5" width="18" height="231" rx="9" fill="#E879F9" opacity="0.20"/>
<rect x="838" y="239.5" width="18" height="177" rx="9" fill="#E879F9" opacity="0.26"/>
<rect x="872" y="264.0" width="18" height="128" rx="9" fill="#E879F9" opacity="0.32"/>
<rect x="906" y="275.5" width="18" height="105" rx="9" fill="#E879F9" opacity="0.38"/>
<rect x="940" y="269.0" width="18" height="118" rx="9" fill="#E879F9" opacity="0.20"/>
<rect x="974" y="247.0" width="18" height="162" rx="9" fill="#E879F9" opacity="0.26"/>
<rect x="1008" y="220.0" width="18" height="216" rx="9" fill="#E879F9" opacity="0.32"/>
<rect x="1042" y="197.5" width="18" height="261" rx="9" fill="#E879F9" opacity="0.38"/>
<rect x="1076" y="190.5" width="18" height="275" rx="9" fill="#E879F9" opacity="0.20"/>
<rect x="1110" y="201.0" width="18" height="254" rx="9" fill="#E879F9" opacity="0.26"/>
<rect x="1144" y="225.5" width="18" height="205" rx="9" fill="#E879F9" opacity="0.32"/>
  </g>
  <rect x="30" y="28" width="1140" height="574" rx="36" fill="none" stroke="#FFFFFF" stroke-opacity=".10" stroke-width="2"/>
  <g transform="translate(78 70)">
    <rect width="58" height="58" rx="17" fill="#E879F9" opacity=".95"/>
    <text x="29" y="39" text-anchor="middle" class="mono">KV</text>
    <text x="78" y="37" class="brand">Krishnatheja Vanka / Series</text>
  </g>
  <g transform="translate(78 392)">
    <rect x="0" y="0" width="154" height="46" rx="23" fill="#FFFFFF" opacity=".09"/>
    <circle cx="26" cy="23" r="7" fill="#E879F9"/>
    <text x="46" y="31" class="chip">2 parts</text>
    <rect x="174" y="0" width="140" height="46" rx="23" fill="#FFFFFF" opacity=".09"/>
    <circle cx="200" cy="23" r="7" fill="#22D3EE"/>
    <text x="220" y="31" class="chip">~64 min</text>
  </g>
  <text x="78" y="218" class="title">ONNX Deployment</text>
  <text x="80" y="338" class="caption">Multi-part guide from concept to implementation</text>
</svg>
