<svg xmlns="http://www.w3.org/2000/svg" width="1200" height="630" viewBox="0 0 1200 630">
  <defs>
    <linearGradient id="bg-pytorch-training-optimization" x1="0" y1="0" x2="1" y2="1">
      <stop offset="0%" stop-color="#F2FDFF"/>
      <stop offset="54%" stop-color="#ffffff"/>
      <stop offset="100%" stop-color="#F2FDFF"/>
    </linearGradient>
    <filter id="shadow-pytorch-training-optimization" x="-20%" y="-20%" width="140%" height="140%">
      <feDropShadow dx="0" dy="22" stdDeviation="22" flood-color="#073B4C" flood-opacity=".16"/>
    </filter>
    <style>
      .brand { font: 500 25px Inter, ui-sans-serif, system-ui, -apple-system, BlinkMacSystemFont, "Segoe UI", sans-serif; fill: #073B4C; letter-spacing: .5px; }
      .eyebrow { font: 500 28px Inter, ui-sans-serif, system-ui, sans-serif; fill: #073B4C; }
      .meta { font: 500 24px Inter, ui-sans-serif, system-ui, sans-serif; fill: #073B4C; }
      .title { font: 500 44px Inter, ui-sans-serif, system-ui, sans-serif; fill: #073B4C; }
      .desc { font: 400 23px Inter, ui-sans-serif, system-ui, sans-serif; fill: #073B4C; opacity: .72; }
      .post { font: 400 20px Inter, ui-sans-serif, system-ui, sans-serif; fill: #073B4C; opacity: .78; }
      .post-num { font: 500 12px Inter, ui-sans-serif, system-ui, sans-serif; fill: #073B4C; }
      .mono { font: 500 30px ui-monospace, SFMono-Regular, Menlo, Consolas, monospace; fill: #073B4C; }
    </style>
  </defs>
  <rect width="1200" height="630" fill="url(#bg-pytorch-training-optimization)"/>
  <circle cx="1080" cy="80" r="260" fill="#118AB2" opacity=".10"/>
  <circle cx="1050" cy="570" r="210" fill="#06D6A0" opacity=".10"/>
  <rect x="44" y="42" width="1112" height="546" rx="34" fill="#ffffff" opacity=".76" filter="url(#shadow-pytorch-training-optimization)"/>
  <rect x="44" y="42" width="1112" height="546" rx="34" fill="none" stroke="#073B4C" stroke-opacity=".10" stroke-width="2"/>
  <g transform="translate(88 92)">
    <rect width="58" height="58" rx="18" fill="#073B4C"/>
    <text x="29" y="39" text-anchor="middle" class="mono" fill="#fff">KV</text>
    <text x="78" y="37" class="brand">Krishnatheja Vanka / Series</text>
  </g>
  <g transform="translate(748 92)">
    <rect x="0" y="0" width="162" height="44" rx="22" fill="#118AB2" opacity=".14"/>
    <text x="22" y="30" class="eyebrow">4 parts</text>
    <rect x="185" y="0" width="142" height="44" rx="22" fill="#06D6A0" opacity=".16"/>
    <text x="207" y="30" class="meta">~39 min</text>
  </g>
  <text x="86" y="208" class="title">PyTorch Training</text>
<text x="86" y="258" class="title">Optimization</text>
  <text x="88" y="348" class="desc">Squeeze every bit of performance out of your PyTorch</text>
<text x="88" y="376" class="desc">training - from data loading to AMP to custom CUDA.</text>
  <line x1="88" y1="420" x2="610" y2="420" stroke="#073B4C" stroke-opacity=".14" stroke-width="2"/>
  <g transform="translate(88 466)"><circle cx="10" cy="10" r="10" fill="#118AB2" opacity=".16"/><text x="10" y="14" text-anchor="middle" class="post-num">1</text><text x="34" y="15" class="post">PyTorch Training and Inference Optimization Guide</text></g>
<g transform="translate(88 504)"><circle cx="10" cy="10" r="10" fill="#118AB2" opacity=".16"/><text x="10" y="14" text-anchor="middle" class="post-num">2</text><text x="34" y="15" class="post">PyTorch Collate Function Speed-Up Guide</text></g>
  <text x="122" y="557" class="post">+ 2 more</text>
  <g opacity=".95">
    <circle cx="930" cy="310" r="64" fill="none" stroke="#06D6A0" stroke-width="2" opacity="0.36"/>
<circle cx="930" cy="310" r="104" fill="none" stroke="#118AB2" stroke-width="2" opacity="0.32"/>
<circle cx="930" cy="310" r="148" fill="none" stroke="#06D6A0" stroke-width="2" opacity="0.27"/>
<circle cx="930" cy="310" r="192" fill="none" stroke="#118AB2" stroke-width="2" opacity="0.22"/>
<circle cx="930" cy="310" r="238" fill="none" stroke="#06D6A0" stroke-width="2" opacity="0.18"/>
<circle cx="1168.0" cy="310.0" r="6" fill="#118AB2" opacity=".55"/>
<circle cx="1098.3" cy="478.3" r="6" fill="#118AB2" opacity=".55"/>
<circle cx="930.0" cy="548.0" r="6" fill="#118AB2" opacity=".55"/>
<circle cx="761.7" cy="478.3" r="6" fill="#118AB2" opacity=".55"/>
<circle cx="692.0" cy="310.0" r="6" fill="#118AB2" opacity=".55"/>
<circle cx="761.7" cy="141.7" r="6" fill="#118AB2" opacity=".55"/>
<circle cx="930.0" cy="72.0" r="6" fill="#118AB2" opacity=".55"/>
<circle cx="1098.3" cy="141.7" r="6" fill="#118AB2" opacity=".55"/>
  </g>
  <path d="M795 520 C875 466, 1005 468, 1098 540" stroke="#073B4C" stroke-opacity=".08" stroke-width="28" stroke-linecap="round" fill="none"/>
</svg>
