<svg xmlns="http://www.w3.org/2000/svg" width="1200" height="630" viewBox="0 0 1200 630">
  <defs>
    <linearGradient id="bg-pytorch-training-optimization" x1="0" y1="0" x2="1" y2="1">
      <stop offset="0%" stop-color="#3B0764"/>
      <stop offset="58%" stop-color="#111827"/>
      <stop offset="100%" stop-color="#020617"/>
    </linearGradient>
    <radialGradient id="glow-a-pytorch-training-optimization" cx="50%" cy="50%" r="50%">
      <stop offset="0%" stop-color="#E879F9" stop-opacity=".65"/>
      <stop offset="100%" stop-color="#E879F9" stop-opacity="0"/>
    </radialGradient>
    <radialGradient id="glow-b-pytorch-training-optimization" cx="50%" cy="50%" r="50%">
      <stop offset="0%" stop-color="#34D399" stop-opacity=".42"/>
      <stop offset="100%" stop-color="#34D399" stop-opacity="0"/>
    </radialGradient>
    <style>
      .brand { font: 500 25px Inter, ui-sans-serif, system-ui, -apple-system, BlinkMacSystemFont, "Segoe UI", sans-serif; fill: #D8E2F1; letter-spacing: .4px; }
      .title { font: 500 56px Inter, ui-sans-serif, system-ui, sans-serif; fill: #F8FAFC; letter-spacing: 0; }
      .caption { font: 400 24px Inter, ui-sans-serif, system-ui, sans-serif; fill: #9FB0C7; }
      .mono { font: 500 34px ui-monospace, SFMono-Regular, Menlo, Consolas, monospace; fill: #F8FAFC; }
    </style>
  </defs>
  <rect width="1200" height="630" fill="url(#bg-pytorch-training-optimization)"/>
  <rect x="0" y="0" width="1200" height="630" fill="url(#glow-a-pytorch-training-optimization)" opacity=".35" transform="translate(610 -280) scale(1.0 .82)"/>
  <rect x="0" y="0" width="1200" height="630" fill="url(#glow-b-pytorch-training-optimization)" opacity=".28" transform="translate(330 190) scale(.95 .78)"/>
  <path d="M0 508 C190 438, 310 584, 488 506 C690 418, 820 472, 1200 350 L1200 630 L0 630 Z" fill="#FFFFFF" opacity=".035"/>
  <path d="M0 548 C230 480, 375 608, 570 525 C735 455, 920 535, 1200 438" stroke="#FFFFFF" stroke-opacity=".08" stroke-width="2" fill="none"/>
  <g opacity=".85">
    <rect x="680" y="220" width="88" height="88" rx="18" fill="#34D399" opacity=".20"/>
<circle cx="724" cy="264" r="18" fill="#F8FAFC" opacity=".12"/>
<path d="M776 264 L792 264" stroke="#F8FAFC" stroke-width="4" stroke-linecap="round" opacity=".42" fill="none"/>
<rect x="798" y="220" width="88" height="88" rx="18" fill="#E879F9" opacity=".20"/>
<circle cx="842" cy="264" r="18" fill="#F8FAFC" opacity=".12"/>
<path d="M894 264 L910 264" stroke="#F8FAFC" stroke-width="4" stroke-linecap="round" opacity=".42" fill="none"/>
<rect x="916" y="220" width="88" height="88" rx="18" fill="#34D399" opacity=".20"/>
<circle cx="960" cy="264" r="18" fill="#F8FAFC" opacity=".12"/>
<path d="M1012 264 L1028 264" stroke="#F8FAFC" stroke-width="4" stroke-linecap="round" opacity=".42" fill="none"/>
<rect x="1034" y="220" width="88" height="88" rx="18" fill="#E879F9" opacity=".20"/>
<circle cx="1078" cy="264" r="18" fill="#F8FAFC" opacity=".12"/>
<path d="M695 390 L1095 390" stroke="#E879F9" stroke-width="12" opacity=".28" stroke-linecap="round"/>
  </g>
  <rect x="30" y="28" width="1140" height="574" rx="36" fill="none" stroke="#FFFFFF" stroke-opacity=".10" stroke-width="2"/>
  <g transform="translate(78 70)">
    <rect width="58" height="58" rx="17" fill="#E879F9" opacity=".95"/>
    <text x="29" y="39" text-anchor="middle" class="mono">KV</text>
    <text x="78" y="37" class="brand">Krishnatheja Vanka / Series</text>
  </g>
  <text x="78" y="218" class="title">PyTorch Training</text>
<text x="78" y="280" class="title">Optimization</text>
  <text x="80" y="338" class="caption">Multi-part guide from concept to implementation</text>
</svg>
