<svg xmlns="http://www.w3.org/2000/svg" width="1200" height="630" viewBox="0 0 1200 630">
  <defs>
    <linearGradient id="bg-rust-for-python-developers" x1="0" y1="0" x2="1" y2="1">
      <stop offset="0%" stop-color="#082F49"/>
      <stop offset="58%" stop-color="#111827"/>
      <stop offset="100%" stop-color="#020617"/>
    </linearGradient>
    <radialGradient id="glow-a-rust-for-python-developers" cx="50%" cy="50%" r="50%">
      <stop offset="0%" stop-color="#06B6D4" stop-opacity=".65"/>
      <stop offset="100%" stop-color="#06B6D4" stop-opacity="0"/>
    </radialGradient>
    <radialGradient id="glow-b-rust-for-python-developers" cx="50%" cy="50%" r="50%">
      <stop offset="0%" stop-color="#4ADE80" stop-opacity=".42"/>
      <stop offset="100%" stop-color="#4ADE80" stop-opacity="0"/>
    </radialGradient>
    <style>
      .brand { font: 500 25px Inter, ui-sans-serif, system-ui, -apple-system, BlinkMacSystemFont, "Segoe UI", sans-serif; fill: #D8E2F1; letter-spacing: .4px; }
      .title { font: 500 56px Inter, ui-sans-serif, system-ui, sans-serif; fill: #F8FAFC; letter-spacing: 0; }
      .caption { font: 400 24px Inter, ui-sans-serif, system-ui, sans-serif; fill: #9FB0C7; }
      .mono { font: 500 34px ui-monospace, SFMono-Regular, Menlo, Consolas, monospace; fill: #F8FAFC; }
    </style>
  </defs>
  <rect width="1200" height="630" fill="url(#bg-rust-for-python-developers)"/>
  <rect x="0" y="0" width="1200" height="630" fill="url(#glow-a-rust-for-python-developers)" opacity=".35" transform="translate(610 -280) scale(1.0 .82)"/>
  <rect x="0" y="0" width="1200" height="630" fill="url(#glow-b-rust-for-python-developers)" opacity=".28" transform="translate(330 190) scale(.95 .78)"/>
  <path d="M0 508 C190 438, 310 584, 488 506 C690 418, 820 472, 1200 350 L1200 630 L0 630 Z" fill="#FFFFFF" opacity=".035"/>
  <path d="M0 548 C230 480, 375 608, 570 525 C735 455, 920 535, 1200 438" stroke="#FFFFFF" stroke-opacity=".08" stroke-width="2" fill="none"/>
  <g opacity=".85">
    <path d="M900 285 L1035.0 285.0" stroke="#06B6D4" stroke-width="7" stroke-linecap="round" opacity=".38" fill="none"/>
<path d="M900 285 L1016.9 352.5" stroke="#06B6D4" stroke-width="7" stroke-linecap="round" opacity=".38" fill="none"/>
<path d="M900 285 L967.5 401.9" stroke="#06B6D4" stroke-width="7" stroke-linecap="round" opacity=".38" fill="none"/>
<path d="M900 285 L900.0 420.0" stroke="#06B6D4" stroke-width="7" stroke-linecap="round" opacity=".38" fill="none"/>
<path d="M900 285 L832.5 401.9" stroke="#06B6D4" stroke-width="7" stroke-linecap="round" opacity=".38" fill="none"/>
<path d="M900 285 L783.1 352.5" stroke="#06B6D4" stroke-width="7" stroke-linecap="round" opacity=".38" fill="none"/>
<path d="M900 285 L765.0 285.0" stroke="#06B6D4" stroke-width="7" stroke-linecap="round" opacity=".38" fill="none"/>
<path d="M900 285 L783.1 217.5" stroke="#06B6D4" stroke-width="7" stroke-linecap="round" opacity=".38" fill="none"/>
<path d="M900 285 L832.5 168.1" stroke="#06B6D4" stroke-width="7" stroke-linecap="round" opacity=".38" fill="none"/>
<path d="M900 285 L900.0 150.0" stroke="#06B6D4" stroke-width="7" stroke-linecap="round" opacity=".38" fill="none"/>
<path d="M900 285 L967.5 168.1" stroke="#06B6D4" stroke-width="7" stroke-linecap="round" opacity=".38" fill="none"/>
<path d="M900 285 L1016.9 217.5" stroke="#06B6D4" stroke-width="7" stroke-linecap="round" opacity=".38" fill="none"/>
<circle cx="900" cy="285" r="105" fill="none" stroke="#4ADE80" stroke-width="20" opacity=".35"/>
  </g>
  <rect x="30" y="28" width="1140" height="574" rx="36" fill="none" stroke="#FFFFFF" stroke-opacity=".10" stroke-width="2"/>
  <g transform="translate(78 70)">
    <rect width="58" height="58" rx="17" fill="#06B6D4" opacity=".95"/>
    <text x="29" y="39" text-anchor="middle" class="mono">KV</text>
    <text x="78" y="37" class="brand">Krishnatheja Vanka / Series</text>
  </g>
  <text x="78" y="218" class="title">Rust for Python</text>
<text x="78" y="280" class="title">Developers</text>
  <text x="80" y="338" class="caption">Multi-part guide from concept to implementation</text>
</svg>
