<svg xmlns="http://www.w3.org/2000/svg" width="1200" height="630" viewBox="0 0 1200 630">
  <defs>
    <linearGradient id="bg-dino-self-supervised-learning" x1="0" y1="0" x2="1" y2="1">
      <stop offset="0%" stop-color="#0B1220"/>
      <stop offset="58%" stop-color="#111827"/>
      <stop offset="100%" stop-color="#020617"/>
    </linearGradient>
    <radialGradient id="glow-a-dino-self-supervised-learning" cx="50%" cy="50%" r="50%">
      <stop offset="0%" stop-color="#60A5FA" stop-opacity=".65"/>
      <stop offset="100%" stop-color="#60A5FA" stop-opacity="0"/>
    </radialGradient>
    <radialGradient id="glow-b-dino-self-supervised-learning" cx="50%" cy="50%" r="50%">
      <stop offset="0%" stop-color="#2DD4BF" stop-opacity=".42"/>
      <stop offset="100%" stop-color="#2DD4BF" stop-opacity="0"/>
    </radialGradient>
    <style>
      .brand { font: 500 25px Inter, ui-sans-serif, system-ui, -apple-system, BlinkMacSystemFont, "Segoe UI", sans-serif; fill: #D8E2F1; letter-spacing: .4px; }
      .chip { font: 500 24px Inter, ui-sans-serif, system-ui, sans-serif; fill: #E5EDF8; }
      .title { font: 500 56px Inter, ui-sans-serif, system-ui, sans-serif; fill: #F8FAFC; letter-spacing: 0; }
      .caption { font: 400 24px Inter, ui-sans-serif, system-ui, sans-serif; fill: #9FB0C7; }
      .mono { font: 500 34px ui-monospace, SFMono-Regular, Menlo, Consolas, monospace; fill: #F8FAFC; }
      .mini { font: 500 18px Inter, ui-sans-serif, system-ui, sans-serif; fill: #E5EDF8; }
      .diagram { font: 500 22px Inter, ui-sans-serif, system-ui, sans-serif; fill: #D8E2F1; opacity: .86; }
      .code { font: 500 24px ui-monospace, SFMono-Regular, Menlo, Consolas, monospace; fill: #D8E2F1; opacity: .88; }
    </style>
  </defs>
  <rect width="1200" height="630" fill="url(#bg-dino-self-supervised-learning)"/>
  <rect x="0" y="0" width="1200" height="630" fill="url(#glow-a-dino-self-supervised-learning)" opacity=".35" transform="translate(610 -280) scale(1.0 .82)"/>
  <rect x="0" y="0" width="1200" height="630" fill="url(#glow-b-dino-self-supervised-learning)" opacity=".28" transform="translate(330 190) scale(.95 .78)"/>
  <path d="M0 508 C190 438, 310 584, 488 506 C690 418, 820 472, 1200 350 L1200 630 L0 630 Z" fill="#FFFFFF" opacity=".035"/>
  <path d="M0 548 C230 480, 375 608, 570 525 C735 455, 920 535, 1200 438" stroke="#FFFFFF" stroke-opacity=".08" stroke-width="2" fill="none"/>
  <g opacity=".85">
    <path d="M690 150 C785 105, 900 190, 1070 142" stroke="#60A5FA" stroke-width="4" opacity=".6" fill="none"/>
<path d="M690 215 C785 170, 900 255, 1070 207" stroke="#60A5FA" stroke-width="4" opacity=".6" fill="none"/>
<path d="M690 280 C785 235, 900 320, 1070 272" stroke="#60A5FA" stroke-width="4" opacity=".6" fill="none"/>
<path d="M690 345 C785 300, 900 385, 1070 337" stroke="#60A5FA" stroke-width="4" opacity=".6" fill="none"/>
<path d="M690 410 C785 365, 900 450, 1070 402" stroke="#60A5FA" stroke-width="4" opacity=".6" fill="none"/>
<circle cx="720" cy="164" r="9" fill="#2DD4BF" opacity=".9"/>
<circle cx="720" cy="262" r="9" fill="#2DD4BF" opacity=".9"/>
<circle cx="720" cy="360" r="9" fill="#2DD4BF" opacity=".9"/>
<circle cx="800" cy="164" r="9" fill="#2DD4BF" opacity=".9"/>
<circle cx="800" cy="262" r="9" fill="#2DD4BF" opacity=".9"/>
<circle cx="800" cy="360" r="9" fill="#2DD4BF" opacity=".9"/>
<circle cx="900" cy="164" r="9" fill="#2DD4BF" opacity=".9"/>
<circle cx="900" cy="262" r="9" fill="#2DD4BF" opacity=".9"/>
<circle cx="900" cy="360" r="9" fill="#2DD4BF" opacity=".9"/>
<circle cx="1010" cy="164" r="9" fill="#2DD4BF" opacity=".9"/>
<circle cx="1010" cy="262" r="9" fill="#2DD4BF" opacity=".9"/>
<circle cx="1010" cy="360" r="9" fill="#2DD4BF" opacity=".9"/>
<rect x="760" y="420" width="250" height="48" rx="24" fill="#60A5FA" opacity=".12"/>
<text x="885" y="452" text-anchor="middle" class="diagram">teacher -> student</text>
  </g>
  <rect x="30" y="28" width="1140" height="574" rx="36" fill="none" stroke="#FFFFFF" stroke-opacity=".10" stroke-width="2"/>
  <g transform="translate(78 70)">
    <rect width="58" height="58" rx="17" fill="#60A5FA" opacity=".95"/>
    <text x="29" y="39" text-anchor="middle" class="mono">KV</text>
    <text x="78" y="37" class="brand">Krishnatheja Vanka / Series</text>
  </g>
  <g transform="translate(78 392)">
    <rect x="0" y="0" width="154" height="46" rx="23" fill="#FFFFFF" opacity=".09"/>
    <circle cx="26" cy="23" r="7" fill="#60A5FA"/>
    <text x="46" y="31" class="chip">6 parts</text>
    <rect x="174" y="0" width="140" height="46" rx="23" fill="#FFFFFF" opacity=".09"/>
    <circle cx="200" cy="23" r="7" fill="#2DD4BF"/>
    <text x="220" y="31" class="chip">~56 min</text>
  </g>
  <text x="78" y="218" class="title">DINO Self-Supervised</text>
<text x="78" y="280" class="title">Learning</text>
  <text x="80" y="338" class="caption">Multi-part guide from concept to implementation</text>
</svg>
