<svg xmlns="http://www.w3.org/2000/svg" width="1200" height="630" viewBox="0 0 1200 630">
  <defs>
    <linearGradient id="bg-milvus-for-machine-learning" x1="0" y1="0" x2="1" y2="1">
      <stop offset="0%" stop-color="#111827"/>
      <stop offset="58%" stop-color="#111827"/>
      <stop offset="100%" stop-color="#020617"/>
    </linearGradient>
    <radialGradient id="glow-a-milvus-for-machine-learning" cx="50%" cy="50%" r="50%">
      <stop offset="0%" stop-color="#F97316" stop-opacity=".65"/>
      <stop offset="100%" stop-color="#F97316" stop-opacity="0"/>
    </radialGradient>
    <radialGradient id="glow-b-milvus-for-machine-learning" cx="50%" cy="50%" r="50%">
      <stop offset="0%" stop-color="#67E8F9" stop-opacity=".42"/>
      <stop offset="100%" stop-color="#67E8F9" stop-opacity="0"/>
    </radialGradient>
    <style>
      .brand { font: 500 25px Inter, ui-sans-serif, system-ui, -apple-system, BlinkMacSystemFont, "Segoe UI", sans-serif; fill: #D8E2F1; letter-spacing: .4px; }
      .title { font: 500 56px Inter, ui-sans-serif, system-ui, sans-serif; fill: #F8FAFC; letter-spacing: 0; }
      .caption { font: 400 24px Inter, ui-sans-serif, system-ui, sans-serif; fill: #9FB0C7; }
      .mono { font: 500 34px ui-monospace, SFMono-Regular, Menlo, Consolas, monospace; fill: #F8FAFC; }
    </style>
  </defs>
  <rect width="1200" height="630" fill="url(#bg-milvus-for-machine-learning)"/>
  <rect x="0" y="0" width="1200" height="630" fill="url(#glow-a-milvus-for-machine-learning)" opacity=".35" transform="translate(610 -280) scale(1.0 .82)"/>
  <rect x="0" y="0" width="1200" height="630" fill="url(#glow-b-milvus-for-machine-learning)" opacity=".28" transform="translate(330 190) scale(.95 .78)"/>
  <path d="M0 508 C190 438, 310 584, 488 506 C690 418, 820 472, 1200 350 L1200 630 L0 630 Z" fill="#FFFFFF" opacity=".035"/>
  <path d="M0 548 C230 480, 375 608, 570 525 C735 455, 920 535, 1200 438" stroke="#FFFFFF" stroke-opacity=".08" stroke-width="2" fill="none"/>
  <g opacity=".85">
    <circle cx="700" cy="145" r="5" fill="#67E8F9" opacity=".9"/>
<circle cx="773" cy="192" r="6" fill="#F97316" opacity=".9"/>
<circle cx="846" cy="239" r="7" fill="#67E8F9" opacity=".9"/>
<circle cx="919" cy="286" r="5" fill="#F97316" opacity=".9"/>
<circle cx="992" cy="333" r="6" fill="#67E8F9" opacity=".9"/>
<circle cx="1065" cy="380" r="7" fill="#F97316" opacity=".9"/>
<circle cx="748" cy="427" r="5" fill="#67E8F9" opacity=".9"/>
<circle cx="821" cy="189" r="6" fill="#F97316" opacity=".9"/>
<circle cx="894" cy="236" r="7" fill="#67E8F9" opacity=".9"/>
<circle cx="967" cy="283" r="5" fill="#F97316" opacity=".9"/>
<circle cx="1040" cy="330" r="6" fill="#67E8F9" opacity=".9"/>
<circle cx="723" cy="377" r="7" fill="#F97316" opacity=".9"/>
<circle cx="796" cy="424" r="5" fill="#67E8F9" opacity=".9"/>
<circle cx="869" cy="186" r="6" fill="#F97316" opacity=".9"/>
<circle cx="942" cy="233" r="7" fill="#67E8F9" opacity=".9"/>
<circle cx="1015" cy="280" r="5" fill="#F97316" opacity=".9"/>
<circle cx="1088" cy="327" r="6" fill="#67E8F9" opacity=".9"/>
<circle cx="771" cy="374" r="7" fill="#F97316" opacity=".9"/>
<circle cx="844" cy="421" r="5" fill="#67E8F9" opacity=".9"/>
<circle cx="917" cy="183" r="6" fill="#F97316" opacity=".9"/>
<circle cx="990" cy="230" r="7" fill="#67E8F9" opacity=".9"/>
<circle cx="1063" cy="277" r="5" fill="#F97316" opacity=".9"/>
<circle cx="746" cy="324" r="6" fill="#67E8F9" opacity=".9"/>
<circle cx="819" cy="371" r="7" fill="#F97316" opacity=".9"/>
<circle cx="892" cy="418" r="5" fill="#67E8F9" opacity=".9"/>
<circle cx="965" cy="180" r="6" fill="#F97316" opacity=".9"/>
<circle cx="1038" cy="227" r="7" fill="#67E8F9" opacity=".9"/>
<circle cx="721" cy="274" r="5" fill="#F97316" opacity=".9"/>
<circle cx="794" cy="321" r="6" fill="#67E8F9" opacity=".9"/>
<circle cx="867" cy="368" r="7" fill="#F97316" opacity=".9"/>
<circle cx="940" cy="415" r="5" fill="#67E8F9" opacity=".9"/>
<circle cx="1013" cy="177" r="6" fill="#F97316" opacity=".9"/>
<circle cx="1086" cy="224" r="7" fill="#67E8F9" opacity=".9"/>
<circle cx="769" cy="271" r="5" fill="#F97316" opacity=".9"/>
<circle cx="842" cy="318" r="6" fill="#67E8F9" opacity=".9"/>
<circle cx="915" cy="365" r="7" fill="#F97316" opacity=".9"/>
<circle cx="790" cy="240" r="92" fill="none" stroke="#F8FAFC" stroke-width="2" opacity=".16"/>
<circle cx="970" cy="310" r="120" fill="none" stroke="#F8FAFC" stroke-width="2" opacity=".16"/>
<circle cx="875" cy="390" r="72" fill="none" stroke="#F8FAFC" stroke-width="2" opacity=".16"/>
  </g>
  <rect x="30" y="28" width="1140" height="574" rx="36" fill="none" stroke="#FFFFFF" stroke-opacity=".10" stroke-width="2"/>
  <g transform="translate(78 70)">
    <rect width="58" height="58" rx="17" fill="#F97316" opacity=".95"/>
    <text x="29" y="39" text-anchor="middle" class="mono">KV</text>
    <text x="78" y="37" class="brand">Krishnatheja Vanka / Series</text>
  </g>
  <text x="78" y="218" class="title">Milvus for Machine</text>
<text x="78" y="280" class="title">Learning</text>
  <text x="80" y="338" class="caption">Multi-part guide from concept to implementation</text>
</svg>
